<svg width="30" height="30" viewBox="0 0 30 30" fill="none" xmlns="http://www.w3.org/2000/svg">
<path d="M21.515 2.79618C21.5898 2.56132 21.5691 2.30644 21.4573 2.08673C21.3456 1.86703 21.1518 1.70016 20.918 1.62227C20.6841 1.54437 20.429 1.56171 20.2078 1.67052C19.9867 1.77934 19.8172 1.97088 19.7362 2.20368L18.7987 5.01493C18.724 5.2498 18.7447 5.50468 18.8564 5.72438C18.9681 5.94409 19.1619 6.11096 19.3958 6.18885C19.6296 6.26675 19.8848 6.24941 20.1059 6.1406C20.3271 6.03178 20.4965 5.84024 20.5775 5.60743L21.515 2.79618ZM27.225 2.77493C27.4006 2.95072 27.4992 3.189 27.4992 3.43743C27.4992 3.68587 27.4006 3.92415 27.225 4.09993L24.1 7.22493C24.0142 7.31704 23.9107 7.39092 23.7957 7.44216C23.6807 7.4934 23.5565 7.52095 23.4307 7.52317C23.3048 7.52539 23.1797 7.50224 23.063 7.45509C22.9463 7.40794 22.8402 7.33776 22.7512 7.24873C22.6622 7.15971 22.592 7.05367 22.5448 6.93693C22.4977 6.8202 22.4745 6.69516 22.4768 6.56928C22.479 6.4434 22.5065 6.31926 22.5578 6.20426C22.609 6.08926 22.6829 5.98576 22.775 5.89993L25.9 2.77493C26.0758 2.59937 26.3141 2.50076 26.5625 2.50076C26.8109 2.50076 27.0492 2.59937 27.225 2.77493ZM16.0875 4.67493C15.7651 4.32952 15.3633 4.06793 14.9169 3.91284C14.4706 3.75774 13.9932 3.71381 13.526 3.78485C13.0589 3.8559 12.6161 4.03977 12.2361 4.32055C11.856 4.60133 11.5502 4.97053 11.345 5.39618L3.9725 20.6999C3.76538 21.1304 3.70062 21.6155 3.78759 22.0852C3.87456 22.5549 4.10875 22.9847 4.45625 23.3124L6.255 25.0099C6.57739 25.3139 6.98234 25.5159 7.41908 25.5906C7.85582 25.6653 8.3049 25.6094 8.71 25.4299L10.4812 24.6449C11.0277 25.8427 12.0245 26.7765 13.2553 27.2439C14.4861 27.7112 15.8516 27.6742 17.0553 27.141C18.259 26.6078 19.2038 25.6213 19.6847 24.3958C20.1655 23.1702 20.1436 21.8045 19.6237 20.5949L23.8987 18.6999C24.3225 18.5122 24.6952 18.2258 24.9857 17.8648C25.2763 17.5037 25.4763 17.0784 25.569 16.6243C25.6617 16.1702 25.6445 15.7005 25.5188 15.2544C25.393 14.8083 25.1625 14.3988 24.8462 14.0599L16.0875 4.67618V4.67493ZM17.9087 21.3524C18.2123 22.1043 18.2118 22.9447 17.9072 23.6961C17.6027 24.4475 17.018 25.0512 16.2767 25.3796C15.5354 25.708 14.6955 25.7354 13.9343 25.456C13.1732 25.1767 12.5504 24.6124 12.1975 23.8824L17.9087 21.3524ZM23.75 10.3112C23.75 10.0625 23.8488 9.82409 24.0246 9.64827C24.2004 9.47246 24.4389 9.37368 24.6875 9.37368H27.1875C27.4361 9.37368 27.6746 9.47246 27.8504 9.64827C28.0262 9.82409 28.125 10.0625 28.125 10.3112C28.125 10.5598 28.0262 10.7983 27.8504 10.9741C27.6746 11.1499 27.4361 11.2487 27.1875 11.2487H24.6875C24.4389 11.2487 24.2004 11.1499 24.0246 10.9741C23.8488 10.7983 23.75 10.5598 23.75 10.3112Z" fill="#00BDB2"/>
</svg>
