<svg width="32" height="32" viewBox="0 0 32 32" fill="none" xmlns="http://www.w3.org/2000/svg">
<path d="M19.1333 2.66669H12.8667C11.48 2.66669 10.3467 3.78669 10.3467 5.17335V6.42669C10.3467 7.81335 11.4667 8.93335 12.8533 8.93335H19.1333C20.52 8.93335 21.64 7.81335 21.64 6.42669V5.17335C21.6533 3.78669 20.52 2.66669 19.1333 2.66669Z" fill="#A02EF9"/>
<path d="M22.9867 6.42664C22.9867 8.54664 21.2533 10.28 19.1333 10.28H12.8667C10.7467 10.28 9.01332 8.54664 9.01332 6.42664C9.01332 5.67997 8.21332 5.21331 7.54666 5.55997C5.66666 6.55997 4.38666 8.54664 4.38666 10.8266V23.3733C4.38666 26.6533 7.06666 29.3333 10.3467 29.3333H21.6533C24.9333 29.3333 27.6133 26.6533 27.6133 23.3733V10.8266C27.6133 8.54664 26.3333 6.55997 24.4533 5.55997C23.7867 5.21331 22.9867 5.67997 22.9867 6.42664ZM16.5067 22.6H10.6667C10.12 22.6 9.66666 22.1466 9.66666 21.6C9.66666 21.0533 10.12 20.6 10.6667 20.6H16.5067C17.0533 20.6 17.5067 21.0533 17.5067 21.6C17.5067 22.1466 17.0533 22.6 16.5067 22.6ZM20 17.2666H10.6667C10.12 17.2666 9.66666 16.8133 9.66666 16.2666C9.66666 15.72 10.12 15.2666 10.6667 15.2666H20C20.5467 15.2666 21 15.72 21 16.2666C21 16.8133 20.5467 17.2666 20 17.2666Z" fill="#A02EF9"/>
</svg>
