<svg width="30" height="30" viewBox="0 0 30 30" fill="none" xmlns="http://www.w3.org/2000/svg">
<path d="M23.5714 6.16077V21.9643C23.5712 22.0982 23.6211 22.2273 23.7113 22.3262C23.8015 22.4252 23.9254 22.4867 24.0587 22.4988C24.1921 22.5109 24.3251 22.4727 24.4316 22.3916C24.5381 22.3105 24.6104 22.1925 24.6343 22.0608L24.6429 21.9643V8.83934C24.6429 8.09967 25.2425 7.50005 25.9821 7.50005C26.4527 7.50007 26.9061 7.67702 27.2522 7.99578C27.5984 8.31454 27.812 8.7518 27.8507 9.22077L27.8571 9.37505V22.2322C27.8572 23.1216 27.5169 23.9774 26.9061 24.6239C26.2952 25.2704 25.4602 25.6586 24.5721 25.709L24.375 25.7143H5.625C4.73557 25.7144 3.87983 25.3741 3.23333 24.7633C2.58682 24.1524 2.19857 23.3173 2.14822 22.4293L2.14286 22.2322V6.16077C2.14288 5.69021 2.31983 5.23685 2.63859 4.8907C2.95735 4.54456 3.39461 4.33092 3.86357 4.2922L4.01786 4.28577H21.6964C22.167 4.28578 22.6203 4.46274 22.9665 4.7815C23.3126 5.10025 23.5263 5.53752 23.565 6.00648L23.5714 6.16077V21.9643V6.16077ZM10.4432 13.9329H7.76786C7.2973 13.9329 6.84395 14.1099 6.4978 14.4286C6.15165 14.7474 5.93801 15.1847 5.89929 15.6536L5.89286 15.8079V18.4822C5.89288 18.9528 6.06983 19.4061 6.38859 19.7523C6.70735 20.0984 7.14461 20.312 7.61357 20.3508L7.76786 20.3572H10.4432C10.9139 20.3572 11.3674 20.1801 11.7136 19.8611C12.0598 19.5421 12.2733 19.1046 12.3118 18.6354L12.3171 18.4822V15.8079C12.3174 15.3372 12.1406 14.8835 11.8218 14.5372C11.503 14.1908 11.0656 13.977 10.5964 13.9383L10.4432 13.9329ZM19.0179 18.7501H15.2679L15.1586 18.7576C14.9662 18.784 14.79 18.8792 14.6624 19.0256C14.5348 19.1719 14.4645 19.3595 14.4645 19.5536C14.4645 19.7478 14.5348 19.9354 14.6624 20.0817C14.79 20.228 14.9662 20.3232 15.1586 20.3497L15.2679 20.3572H19.0179L19.1271 20.3497C19.3195 20.3232 19.4957 20.228 19.6233 20.0817C19.7509 19.9354 19.8212 19.7478 19.8212 19.5536C19.8212 19.3595 19.7509 19.1719 19.6233 19.0256C19.4957 18.8792 19.3195 18.784 19.1271 18.7576L19.0179 18.7501ZM7.76786 15.5401H10.4432C10.5034 15.5401 10.5618 15.5604 10.6091 15.5977C10.6563 15.6351 10.6896 15.6872 10.7036 15.7458L10.7111 15.8079V18.4822C10.711 18.5425 10.6905 18.6011 10.653 18.6483C10.6154 18.6956 10.563 18.7288 10.5043 18.7426L10.4432 18.7501H7.76786C7.70751 18.75 7.64897 18.7295 7.60171 18.6919C7.55446 18.6544 7.52126 18.602 7.5075 18.5433L7.5 18.4822V15.8079C7.49986 15.7474 7.52023 15.6886 7.55778 15.6411C7.59533 15.5936 7.64785 15.5603 7.70679 15.5465L7.76786 15.5401H10.4432H7.76786ZM19.0179 13.9329H15.2679L15.1586 13.9393C14.9654 13.9649 14.7882 14.0598 14.6598 14.2064C14.5314 14.3529 14.4606 14.5411 14.4606 14.7359C14.4606 14.9308 14.5314 15.119 14.6598 15.2655C14.7882 15.4121 14.9654 15.507 15.1586 15.5326L15.2679 15.5401H19.0179L19.1271 15.5326C19.3203 15.507 19.4976 15.4121 19.626 15.2655C19.7544 15.119 19.8252 14.9308 19.8252 14.7359C19.8252 14.5411 19.7544 14.3529 19.626 14.2064C19.4976 14.0598 19.3203 13.9649 19.1271 13.9393L19.0179 13.9329ZM19.0179 9.10398H6.69643L6.58715 9.11148C6.39481 9.13794 6.21856 9.23315 6.09098 9.37948C5.9634 9.52582 5.89311 9.71341 5.89311 9.90755C5.89311 10.1017 5.9634 10.2893 6.09098 10.4356C6.21856 10.582 6.39481 10.6772 6.58715 10.7036L6.69643 10.7111H19.0179L19.1271 10.7036C19.3195 10.6772 19.4957 10.582 19.6233 10.4356C19.7509 10.2893 19.8212 10.1017 19.8212 9.90755C19.8212 9.71341 19.7509 9.52582 19.6233 9.37948C19.4957 9.23315 19.3195 9.13794 19.1271 9.11148L19.0179 9.10398Z" fill="#A02EF9"/>
</svg>
