<svg width="32" height="32" viewBox="0 0 32 32" fill="none" xmlns="http://www.w3.org/2000/svg">
<path d="M29.3332 14.6267V17.3734C29.3332 18.1067 28.7466 18.7067 27.9999 18.7334H25.3866C23.9466 18.7334 22.6265 17.6801 22.5065 16.2401C22.4265 15.4001 22.7466 14.6134 23.3066 14.0667C23.7999 13.5601 24.4799 13.2667 25.2266 13.2667H27.9999C28.7466 13.2934 29.3332 13.8934 29.3332 14.6267Z" fill="#A02EF9"/>
<path d="M27.2934 20.7333H25.3867C22.8534 20.7333 20.7201 18.8266 20.5067 16.4C20.3867 15.0133 20.8934 13.6266 21.9067 12.64C22.7601 11.76 23.9467 11.2666 25.2267 11.2666H27.2934C27.6801 11.2666 28.0001 10.9466 27.9601 10.56C27.6667 7.31996 25.5201 5.10663 22.3334 4.73329C22.0134 4.67996 21.6801 4.66663 21.3334 4.66663H9.33341C8.96008 4.66663 8.60008 4.69329 8.25341 4.74663C4.85341 5.17329 2.66675 7.70663 2.66675 11.3333V20.6666C2.66675 24.3466 5.65341 27.3333 9.33341 27.3333H21.3334C25.0667 27.3333 27.6401 25 27.9601 21.44C28.0001 21.0533 27.6801 20.7333 27.2934 20.7333ZM17.3334 13H9.33341C8.78675 13 8.33341 12.5466 8.33341 12C8.33341 11.4533 8.78675 11 9.33341 11H17.3334C17.8801 11 18.3334 11.4533 18.3334 12C18.3334 12.5466 17.8801 13 17.3334 13Z" fill="#A02EF9"/>
</svg>
